HIERARCHY
ROOT Hips
{
  OFFSET 5.84602e-005 68.8428 3.50346
  CHANNELS 6 Xposition Yposition Zposition Zrotation Xrotation Yrotation
  JOINT Spine
  {
    OFFSET 0 8.597 -4.6522
    CHANNELS 3 Zrotation Xrotation Yrotation
    JOINT Spine1
    {
      OFFSET 0 7.8454 0.4098
      CHANNELS 3 Zrotation Xrotation Yrotation
      JOINT Spine2
      {
        OFFSET 0 9.7078 -2.1609
        CHANNELS 3 Zrotation Xrotation Yrotation
        JOINT Neck
        {
          OFFSET 0 21.8761 -0.4549
          CHANNELS 3 Zrotation Xrotation Yrotation
          JOINT Head
          {
            OFFSET 0 12.3537 3.3602
            CHANNELS 3 Zrotation Xrotation Yrotation
            End Site
            {
              OFFSET 0.0001 18.9506 0.5657
            }
          }
        }
        JOINT LeftShoulder
        {
          OFFSET 2.2086 21.1115 7.2329
          CHANNELS 3 Zrotation Xrotation Yrotation
          JOINT LeftArm
          {
            OFFSET 13.1193 3.0282 -4.8998
            CHANNELS 3 Zrotation Xrotation Yrotation
            JOINT LeftForeArm
            {
              OFFSET 27.4081 -0.0973053 -0.2375
              CHANNELS 3 Zrotation Xrotation Yrotation
              JOINT LeftHand
              {
                OFFSET 22.8641 0.0662994 -0.1369
                CHANNELS 3 Zrotation Xrotation Yrotation
                JOINT LeftHandIndex1
                {
                  OFFSET 8.8614 0.775009 2.4612
                  CHANNELS 3 Zrotation Xrotation Yrotation
                  JOINT LeftHandIndex2
                  {
                    OFFSET 3.3146 -0.808304 0.5841
                    CHANNELS 3 Zrotation Xrotation Yrotation
                    JOINT LeftHandIndex3
                    {
                      OFFSET 2.2628 -0.552002 0.3989
                      CHANNELS 3 Zrotation Xrotation Yrotation
                      End Site
                      {
                        OFFSET 1.6102 -0.4807 0.2612
                      }
                    }
                  }
                }
                JOINT LeftHandMiddle1
                {
                  OFFSET 8.9937 0.895004 0.2143
                  CHANNELS 3 Zrotation Xrotation Yrotation
                  JOINT LeftHandMiddle2
                  {
                    OFFSET 4.0984 0.0113983 -0.0242
                    CHANNELS 3 Zrotation Xrotation Yrotation
                    JOINT LeftHandMiddle3
                    {
                      OFFSET 2.2716 0.00689697 -0.0138001
                      CHANNELS 3 Zrotation Xrotation Yrotation
                      End Site
                      {
                        OFFSET 2.0404 -0.1441 0.0027
                      }
                    }
                  }
                }
                JOINT LeftHandRing1
                {
                  OFFSET 8.5234 0.597198 -2.0164
                  CHANNELS 3 Zrotation Xrotation Yrotation
                  JOINT LeftHandRing2
                  {
                    OFFSET 3.7188 -0.188293 -0.2328
                    CHANNELS 3 Zrotation Xrotation Yrotation
                    JOINT LeftHandRing3
                    {
                      OFFSET 2.1191 -0.106598 -0.1332
                      CHANNELS 3 Zrotation Xrotation Yrotation
                      End Site
                      {
                        OFFSET 1.8737 -0.2304 -0.0886
                      }
                    }
                  }
                }
                JOINT LeftHandPinky1
                {
                  OFFSET 7.9094 -0.601089 -3.4825
                  CHANNELS 3 Zrotation Xrotation Yrotation
                  JOINT LeftHandPinky2
                  {
                    OFFSET 2.2874 -0.477005 -0.6314
                    CHANNELS 3 Zrotation Xrotation Yrotation
                    JOINT LeftHandPinky3
                    {
                      OFFSET 1.6774 -0.349396 -0.4633
                      CHANNELS 3 Zrotation Xrotation Yrotation
                      End Site
                      {
                        OFFSET 1.4888 -0.4091 -0.3416
                      }
                    }
                  }
                }
                JOINT LeftHandThumb1
                {
                  OFFSET 1.833 -1.3875 1.3896
                  CHANNELS 3 Zrotation Xrotation Yrotation
                  JOINT LeftHandThumb2
                  {
                    OFFSET 3.4129 -1.121 2.5732
                    CHANNELS 3 Zrotation Xrotation Yrotation
                    JOINT LeftHandThumb3
                    {
                      OFFSET 2.2474 -0.804199 1.6192
                      CHANNELS 3 Zrotation Xrotation Yrotation
                      End Site
                      {
                        OFFSET 1.6527 -0.5689 1.1317
                      }
                    }
                  }
                }
              }
            }
          }
        }
        JOINT RightShoulder
        {
          OFFSET -2.2086 21.1115 7.2329
          CHANNELS 3 Zrotation Xrotation Yrotation
          JOINT RightArm
          {
            OFFSET -13.1216 3.0287 -4.9007
            CHANNELS 3 Zrotation Xrotation Yrotation
            JOINT RightForeArm
            {
              OFFSET -27.4081 -0.0973053 -0.2375
              CHANNELS 3 Zrotation Xrotation Yrotation
              JOINT RightHand
              {
                OFFSET -22.8641 0.0664063 -0.1369
                CHANNELS 3 Zrotation Xrotation Yrotation
                JOINT RightHandIndex1
                {
                  OFFSET -8.8614 0.774994 2.4612
                  CHANNELS 3 Zrotation Xrotation Yrotation
                  JOINT RightHandIndex2
                  {
                    OFFSET -3.3146 -0.808304 0.5841
                    CHANNELS 3 Zrotation Xrotation Yrotation
                    JOINT RightHandIndex3
                    {
                      OFFSET -2.2628 -0.552002 0.3989
                      CHANNELS 3 Zrotation Xrotation Yrotation
                      End Site
                      {
                        OFFSET -1.6102 -0.4807 0.2612
                      }
                    }
                  }
                }
                JOINT RightHandMiddle1
                {
                  OFFSET -8.9937 0.894989 0.2143
                  CHANNELS 3 Zrotation Xrotation Yrotation
                  JOINT RightHandMiddle2
                  {
                    OFFSET -4.0984 0.0113983 -0.0242
                    CHANNELS 3 Zrotation Xrotation Yrotation
                    JOINT RightHandMiddle3
                    {
                      OFFSET -2.2716 0.00691223 -0.0138001
                      CHANNELS 3 Zrotation Xrotation Yrotation
                      End Site
                      {
                        OFFSET -2.0404 -0.1441 0.0027
                      }
                    }
                  }
                }
                JOINT RightHandRing1
                {
                  OFFSET -8.5234 0.597198 -2.0164
                  CHANNELS 3 Zrotation Xrotation Yrotation
                  JOINT RightHandRing2
                  {
                    OFFSET -3.7188 -0.188309 -0.2328
                    CHANNELS 3 Zrotation Xrotation Yrotation
                    JOINT RightHandRing3
                    {
                      OFFSET -2.1191 -0.106598 -0.1332
                      CHANNELS 3 Zrotation Xrotation Yrotation
                      End Site
                      {
                        OFFSET -1.8737 -0.2304 -0.0886
                      }
                    }
                  }
                }
                JOINT RightHandPinky1
                {
                  OFFSET -7.9094 -0.601105 -3.4825
                  CHANNELS 3 Zrotation Xrotation Yrotation
                  JOINT RightHandPinky2
                  {
                    OFFSET -2.2874 -0.477005 -0.6314
                    CHANNELS 3 Zrotation Xrotation Yrotation
                    JOINT RightHandPinky3
                    {
                      OFFSET -1.6774 -0.349396 -0.4633
                      CHANNELS 3 Zrotation Xrotation Yrotation
                      End Site
                      {
                        OFFSET -1.4888 -0.4091 -0.3416
                      }
                    }
                  }
                }
                JOINT RightHandThumb1
                {
                  OFFSET -1.833 -1.38751 1.3896
                  CHANNELS 3 Zrotation Xrotation Yrotation
                  JOINT RightHandThumb2
                  {
                    OFFSET -3.41299 -1.12099 2.5732
                    CHANNELS 3 Zrotation Xrotation Yrotation
                    JOINT RightHandThumb3
                    {
                      OFFSET -2.24741 -0.804108 1.6192
                      CHANNELS 3 Zrotation Xrotation Yrotation
                      End Site
                      {
                        OFFSET -1.6527 -0.5689 1.1317
                      }
                    }
                  }
                }
              }
            }
          }
        }
      }
    }
  }
  JOINT RightUpLeg
  {
    OFFSET -9.1966 3.8861 -0.7581
    CHANNELS 3 Zrotation Xrotation Yrotation
    JOINT RightLeg
    {
      OFFSET -0.7359 -41.0265 0
      CHANNELS 3 Zrotation Xrotation Yrotation
      JOINT RightFoot
      {
        OFFSET 0 -40.2855 0
        CHANNELS 3 Zrotation Xrotation Yrotation
        JOINT RightToeBase
        {
          OFFSET 0 -5.6122 11.7359
          CHANNELS 3 Zrotation Xrotation Yrotation
          End Site
          {
            OFFSET 0 0 7.8731
          }
        }
      }
    }
  }
  JOINT LeftUpLeg
  {
    OFFSET 9.1965 3.8864 -0.7581
    CHANNELS 3 Zrotation Xrotation Yrotation
    JOINT LeftLeg
    {
      OFFSET 0.7359 -41.0268 0
      CHANNELS 3 Zrotation Xrotation Yrotation
      JOINT LeftFoot
      {
        OFFSET 0 -40.2855 0
        CHANNELS 3 Zrotation Xrotation Yrotation
        JOINT LeftToeBase
        {
          OFFSET 0 -5.6122 11.7359
          CHANNELS 3 Zrotation Xrotation Yrotation
          End Site
          {
            OFFSET 0 0 7.8731
          }
        }
      }
    }
  }
}
MOTION
Frames:	6
Frame Time:	0.0333333
5.84602e-005 68.8428 3.50346 0 0 -0 0 0 -0 0 0 -0 0 0 -0 0 0 -0 0 0 -0 0 0 -0 0 0 -0 0 0 -0 0 0 -0 0 0 -0 0 0 -0 0 0 -0 0 0 -0 -0.0146107 -8.87603e-005 -2.63497e-007 2.99804e-018 -2.42657e-020 -1.42182e-022 0 0 -0 -0.0187562 -0.001176 5.858e-005 5.06224e-018 3.88251e-019 1.21329e-020 0 0 -0 -0.012269 -0.00324817 0.000675346 -1.74678e-018 3.88251e-019 -0 0 0 -0 0 0 -0 0 0 -0 0 0 -0 0 0 -0 0 0 -0 0 0 -0 0 0 -0 0 0 -0 0 0 -0 0 0 -0 0.0149955 -9.10982e-005 2.64101e-007 -9.69331e-018 1.21329e-020 -4.7394e-023 0 0 -0 0.0189956 -0.00119102 -5.96516e-005 -5.41541e-019 0 2.42657e-020 0 0 -0 0.0122698 -0.00324857 -0.000673756 -2.00796e-019 0 -1.94126e-019 0 0 -0 0 0 -0 0 0 -0 3.39842 1.33031 -0.0637918 -5.65207e-008 0.834868 -0.000436188 -3.39935 -2.16518 -0.0642563 -8.89002e-024 -1.18485e-023 -1.48106e-024 -3.39844 1.35642 0.0640283 -3.18788e-007 0.782166 -0.000588827 3.39931 -2.13858 0.0634662 1.1399e-023 0 -0 
6.33975 4.50051 3.21737 90 0 -0 -9.13101 -0.109761 -0.1161 -18.2623 -0.199596 -0.248173 -18.2623 -0.199596 -0.248173 17.3541 11.4684 -28.557 -1.32048e-006 1.1703e-006 2.08748e-006 -10.7458 0.0728931 -5.68756 -5.00049 10.0988 -74.5848 -0.721081 3.18232 -77.3538 0.99844 -1.761e-006 5.02445e-007 -7.95139e-015 7.95139e-015 3.18055e-015 -2.58429e-007 -1.19825e-006 -3.66699e-007 -1.72286e-007 -7.98834e-007 -2.44466e-007 -7.95139e-015 7.95139e-015 3.18055e-015 -0.0146046 -8.96555e-005 3.26935e-006 -1.72282e-007 -7.98803e-007 -2.44568e-007 -7.95139e-015 7.95139e-015 3.18055e-015 -0.0187933 -0.00117984 6.06238e-005 -1.72283e-007 -7.98793e-007 -2.44595e-007 -7.95139e-015 7.95139e-015 3.18055e-015 -0.012284 -0.00325219 0.000679024 -1.72294e-007 -7.98806e-007 -2.44547e-007 -7.95139e-015 7.95139e-015 3.18055e-015 -2.58429e-007 -1.19825e-006 -3.66699e-007 -1.72286e-007 -7.98834e-007 -2.44466e-007 7.99914 -0.194712 -0.00216073 31.6468 13.3236 -37.163 -50.7794 -37.4748 101.33 6.99881 10.5978 -0.000731586 -1.48711e-033 2.85753e-016 2.98177e-016 -7.95139e-016 2.73329e-016 7.95139e-016 -7.95139e-016 -1.40392e-015 6.95746e-016 -1.48711e-033 2.85753e-016 2.98177e-016 0.0149993 -9.25924e-005 3.69867e-006 -3.18055e-015 -2.5345e-015 -6.95746e-016 -1.48711e-033 2.85753e-016 2.98177e-016 0.018999 -0.00119024 -5.39677e-005 -1.59028e-015 -1.42876e-015 -9.93923e-017 -1.48711e-033 2.85753e-016 2.98177e-016 0.0122766 -0.0032492 -0.000669328 1.35174e-014 -8.57259e-016 1.19271e-015 -1.48711e-033 2.85753e-016 2.98177e-016 -7.95139e-016 2.73329e-016 7.95139e-016 -7.95139e-016 -1.40392e-015 6.95746e-016 -3.94734 -27.8681 -2.83515 3.79471 45.4223 -4.39234 -12.7951 36.9072 3.70386 9.93923e-016 -3.18055e-015 -3.97569e-016 25.4515 -39.4986 90.3658 -10.9358 79.259 13.3276 13.3876 35.4654 -1.69101 3.18055e-015 0 -0 
6.33975 4.50051 3.21737 90 0 -0 -9.13101 -0.109761 -0.1161 -18.2623 -0.199596 -0.248173 -18.2623 -0.199596 -0.248173 17.4098 11.4193 -28.5659 -5.08767e-006 -3.38796e-006 -2.03913e-006 -10.7458 0.0728932 -5.68756 -5.05119 10.2194 -74.3649 -0.721088 3.18233 -77.3538 0.998427 8.9845e-007 -5.31478e-006 -1.7401e-007 -7.98451e-007 -2.44414e-007 -1.7401e-007 -7.98451e-007 -2.44414e-007 -1.7401e-007 -7.98451e-007 -2.44414e-007 -1.7401e-007 -7.98451e-007 -2.44414e-007 -0.0146238 -8.9272e-005 2.72684e-007 -1.74006e-007 -7.9842e-007 -2.44515e-007 -1.7401e-007 -7.98451e-007 -2.44414e-007 -0.0187724 -0.00117697 6.25044e-005 -9.55205e-007 -7.13709e-007 -6.80958e-007 -1.7401e-007 -7.98451e-007 -2.44414e-007 -0.0122982 -0.0032576 0.000678513 -9.54406e-007 -7.14004e-007 -6.80823e-007 -1.7401e-007 -7.98451e-007 -2.44414e-007 -1.7401e-007 -7.98451e-007 -2.44414e-007 -1.7401e-007 -7.98451e-007 -2.44414e-007 7.99914 -0.194712 -0.00216074 31.6469 13.3236 -37.163 -50.7794 -37.4748 101.33 6.99881 10.5978 -0.000739817 -6.05766e-007 -5.89849e-007 1.11929e-007 -1.78546e-006 6.21684e-007 1.90079e-007 -3.02883e-007 -2.94924e-007 5.59644e-008 -6.05766e-007 -5.89849e-007 1.11929e-007 0.0149975 -9.19702e-005 3.88926e-006 -1.01839e-008 -5.93355e-007 -9.34845e-008 -6.05766e-007 -5.89849e-007 1.11929e-007 0.0189999 -0.00119115 -4.92144e-005 -3.02886e-007 -2.94915e-007 5.60164e-008 -6.05766e-007 -5.89849e-007 1.11929e-007 0.0122739 -0.00324946 -0.00066897 -9.94939e-009 -5.93082e-007 -9.34406e-008 -6.05766e-007 -5.89849e-007 1.11929e-007 -1.78546e-006 6.21684e-007 1.90079e-007 -3.02883e-007 -2.94924e-007 5.59644e-008 -3.94734 -27.8681 -2.83515 3.79471 45.4223 -4.39234 -12.7951 36.9072 3.70386 9.93923e-016 -3.18055e-015 -3.97569e-016 25.4515 -39.4986 90.3658 -10.9358 79.259 13.3276 13.3876 35.4654 -1.69101 3.18055e-015 0 -0 
6.33975 4.50051 3.21737 90 0 -0 -9.13101 -0.109761 -0.1161 -18.2623 -0.199596 -0.248173 -18.2623 -0.199596 -0.248173 17.4653 11.3702 -28.5747 -6.40628e-007 2.2432e-006 6.20102e-007 -10.7458 0.0728936 -5.68756 -5.10243 10.3399 -74.1445 -0.721081 3.18232 -77.3538 0.998446 -1.22105e-006 -1.88557e-006 -2.38542e-015 -3.18055e-015 6.36111e-015 1.59028e-015 0 -0 3.97569e-015 1.59028e-015 -3.18055e-015 -2.38542e-015 -3.18055e-015 6.36111e-015 -0.0145765 -9.06256e-005 2.1798e-006 -2.38542e-015 0 -0 -2.38542e-015 -3.18055e-015 6.36111e-015 -0.0187324 -0.00117292 6.11646e-005 7.95139e-015 -2.70347e-014 -6.36111e-015 -2.38542e-015 -3.18055e-015 6.36111e-015 -0.012234 -0.00324122 0.000675365 -1.27222e-014 1.59028e-015 -6.36111e-015 -2.38542e-015 -3.18055e-015 6.36111e-015 1.59028e-015 0 -0 3.97569e-015 1.59028e-015 -3.18055e-015 7.99914 -0.194712 -0.00216079 31.6469 13.3236 -37.163 -50.7794 -37.4749 101.33 6.99881 10.5978 -0.000737707 0 8.69683e-016 -0 -1.444e-033 8.32411e-016 9.93923e-017 0 7.45443e-016 -0 0 8.69683e-016 -0 0.014993 -9.16137e-005 4.43794e-006 1.59028e-015 9.19379e-016 -2.98177e-016 0 8.69683e-016 -0 0.0189975 -0.00119232 -5.8461e-005 -1.59028e-015 1.46604e-015 -2.98177e-016 0 8.69683e-016 -0 0.0122664 -0.00324847 -0.000673023 6.37947e-033 -1.83876e-015 1.98785e-016 0 8.69683e-016 -0 -1.444e-033 8.32411e-016 9.93923e-017 0 7.45443e-016 -0 -3.94734 -27.8681 -2.83515 3.79471 45.4223 -4.39235 -12.7951 36.9072 3.70386 -9.93923e-016 0 1.98785e-016 25.4515 -39.4986 90.3658 -10.9358 79.259 13.3276 13.3876 35.4654 -1.69099 1.86364e-006 -1.22778e-007 7.15307e-008 
6.33975 4.50051 3.21737 90 0 -0 -9.13101 -0.109761 -0.1161 -18.2623 -0.199596 -0.248173 -18.2623 -0.199596 -0.248173 17.5209 11.321 -28.5834 3.21603e-006 -2.38568e-007 -7.23973e-007 -10.7457 0.0728936 -5.68756 -5.15422 10.4604 -73.9237 -0.721079 3.18232 -77.3538 0.998425 5.64699e-007 4.35277e-006 1.59028e-015 0 -3.18055e-015 5.31054e-006 -4.92891e-007 1.44441e-007 -8.87308e-008 -3.98836e-007 -1.22152e-007 1.59028e-015 0 -3.18055e-015 -0.0146105 -9.00058e-005 -7.90062e-007 -8.87285e-008 -3.98821e-007 -1.22203e-007 1.59028e-015 0 -3.18055e-015 -0.0187382 -0.00117499 6.07872e-005 -8.87291e-008 -3.98816e-007 -1.22217e-007 1.59028e-015 0 -3.18055e-015 -0.0122511 -0.00324369 0.000669785 -8.87345e-008 -3.98822e-007 -1.22193e-007 1.59028e-015 0 -3.18055e-015 5.31054e-006 -4.92891e-007 1.44441e-007 -8.87308e-008 -3.98836e-007 -1.22152e-007 7.99915 -0.194712 -0.00216094 31.6469 13.3236 -37.163 -50.7794 -37.4748 101.33 6.99881 10.5978 -0.000745007 -2.93986e-007 2.98425e-007 1.49525e-007 1.59028e-015 -3.31722e-015 9.93923e-017 7.95139e-016 -3.3048e-015 1.98785e-016 -2.93986e-007 2.98425e-007 1.49525e-007 0.0150014 -9.23152e-005 8.22635e-006 -7.95139e-016 3.10601e-015 3.97569e-016 -2.93986e-007 2.98425e-007 1.49525e-007 0.0189984 -0.00119083 -5.38572e-005 7.95139e-016 3.72721e-017 -9.93923e-017 -2.93986e-007 2.98425e-007 1.49525e-007 0.0122646 -0.00324665 -0.000677848 -7.95139e-016 9.93923e-017 2.98177e-016 -2.93986e-007 2.98425e-007 1.49525e-007 1.59028e-015 -3.31722e-015 9.93923e-017 7.95139e-016 -3.3048e-015 1.98785e-016 -3.94734 -27.8682 -2.83516 3.79472 45.4223 -4.39235 -12.7951 36.9072 3.70388 -1.98785e-016 -3.18055e-015 2.68359e-015 25.4515 -39.4986 90.3658 -10.9357 79.259 13.3275 13.3876 35.4654 -1.69099 -1.01996e-006 1.56458e-006 -3.54096e-007 
6.33975 4.50051 3.21737 90 0 -0 -9.13101 -0.109761 -0.1161 -18.2623 -0.199596 -0.248173 -18.2623 -0.199596 -0.248173 17.5766 11.2719 -28.5921 -6.68091e-007 3.27816e-006 2.43693e-006 -10.7457 0.072893 -5.68756 -5.20654 10.5808 -73.7025 -0.721085 3.18232 -77.3538 0.998422 8.63823e-007 5.26071e-006 -2.68783e-007 -1.19592e-006 -3.66373e-007 2.93215e-006 -1.02553e-006 -1.99434e-006 3.00992e-006 -1.51403e-006 -3.9979e-007 -2.68783e-007 -1.19592e-006 -3.66373e-007 -0.0146165 -8.99093e-005 -3.53984e-006 3.0098e-006 -1.51398e-006 -3.99985e-007 -2.68783e-007 -1.19592e-006 -3.66373e-007 -0.018778 -0.00117746 5.87478e-005 3.79695e-006 -1.5506e-006 -4.45813e-008 -2.68783e-007 -1.19592e-006 -3.66373e-007 -0.0122893 -0.003255 0.000678225 3.0098e-006 -1.51403e-006 -4.00032e-007 -2.68783e-007 -1.19592e-006 -3.66373e-007 2.93215e-006 -1.02553e-006 -1.99434e-006 3.00992e-006 -1.51403e-006 -3.9979e-007 7.99915 -0.194712 -0.00216099 31.6468 13.3236 -37.163 -50.7794 -37.4748 101.33 6.9988 10.5978 -0.000739852 -7.95139e-016 1.35422e-015 -7.95139e-016 -3.02883e-007 -2.94924e-007 5.59644e-008 -3.18055e-015 -3.81418e-015 -2.98177e-016 -7.95139e-016 1.35422e-015 -7.95139e-016 0.0150041 -9.02649e-005 2.95076e-006 1.59028e-015 -1.32937e-015 -9.93923e-017 -7.95139e-016 1.35422e-015 -7.95139e-016 0.019007 -0.00119184 -5.4893e-005 -7.95139e-016 -9.90196e-015 9.93923e-017 -7.95139e-016 1.35422e-015 -7.95139e-016 0.0122763 -0.0032483 -0.000674285 -7.95139e-016 -1.08089e-015 -9.93923e-017 -7.95139e-016 1.35422e-015 -7.95139e-016 -3.02883e-007 -2.94924e-007 5.59644e-008 -3.18055e-015 -3.81418e-015 -2.98177e-016 -3.94735 -27.8681 -2.83515 3.79474 45.4223 -4.39236 -12.7951 36.9072 3.70386 -2.22692e-006 -3.85902e-007 4.26567e-006 25.4515 -39.4986 90.3658 -10.9357 79.259 13.3276 13.3876 35.4654 -1.69099 1.17873e-007 -1.56228e-007 -2.46402e-006 
